<svg xmlns="http://www.w3.org/2000/svg" xmlns:xlink="http://www.w3.org/1999/xlink" xml:space="preserve" style="shape-rendering:geometricPrecision;text-rendering:geometricPrecision;image-rendering:optimizeQuality;" viewBox="0 0 2.33333 2.9166625" x="0px" y="0px" fill-rule="evenodd" clip-rule="evenodd"><defs><style type="text/css">
   
    .fil1 {fill:none}
    .fil0 {fill:black}
   
  </style></defs><g><g><path class="fil0" d="M0.450122 1.23826c0.071811,0 0.130378,-0.058563 0.130378,-0.130374 0,-0.0718189 -0.0585669,-0.130374 -0.130378,-0.130374 -0.0718189,0 -0.130374,0.0585551 -0.130374,0.130374 0,0.071811 0.0585591,0.130374 0.130374,0.130374z"/><circle class="fil0" cx="1.84323" cy="0.401071" r="0.086124"/><path class="fil0" d="M1.17682 0.649217c0.0132559,0.00961811 0.0187953,0.0267205 0.0136811,0.0423268l-0.0286339 0.0878465 0.0748071 -0.0542874c0.00661417,-0.00491339 0.0145276,-0.00726378 0.0222165,-0.00726378 0.00790551,0 0.0156063,0.00233858 0.0222205,0.00726378l0.0748071 0.0542874 -0.0286339 -0.0878465c-0.00512598,-0.0156063 0.000425197,-0.0327087 0.0136811,-0.0423268l0.0748071 -0.0542795 -0.0923268 0c-0.0164528,0 -0.0309961,-0.0104764 -0.0359094,-0.0260709l-0.0286339 -0.0878465 -0.0286339 0.0878465c-0.00513386,0.0155945 -0.0196693,0.0260709 -0.0359094,0.0260709l-0.0923268 0 0.0747874 0.0542795z"/><path class="fil0" d="M1.47583 1.56656l0.347311 -0.324654c0.000637795,-0.000641732 0.0012874,-0.00106693 0.00191339,-0.0017126 -0.0358976,-0.0149685 -0.0784331,-0.00748031 -0.107496,0.0213701 -0.000212598,0.000212598 -0.000437008,0.000425197 -0.000437008,0.000425197l-0.269087 0.251354c0.0130551,0.0151772 0.0226693,0.033122 0.0277953,0.0532165z"/><path class="fil0" d="M1.15801 1.17628c0.0897638,0 0.172902,-0.0294961 0.24002,-0.0795118l-0.320602 0c-0.0115512,0 -0.0207402,-0.00941339 -0.0207402,-0.0207402 0,-0.0115433 0.00941339,-0.0207283 0.0207402,-0.0207283l0.368256 0c0.0711693,-0.0726732 0.115205,-0.172264 0.115205,-0.281906 0,-0.0192323 -0.0012874,-0.0382638 -0.00406299,-0.0570669 -0.031626,0.143835 -0.160087,0.251559 -0.313118,0.251559 -0.0579173,0 -0.112421,-0.0156024 -0.159433,-0.0425354l-0.21887 -3.93701e-006c-0.0115394,0 -0.0207283,-0.00940157 -0.0207283,-0.0207283 0,-0.0115433 0.00941339,-0.0207283 0.0207283,-0.0207283l0.162008 -3.93701e-006c-0.0641181,-0.0585551 -0.104303,-0.14298 -0.104303,-0.23639 0,-0.0765118 0.0273583,-0.150681 0.0771614,-0.208811 0.0188071,-0.0220157 0.0403858,-0.0410354 0.0641181,-0.057063 -0.177177,0.0423228 -0.309264,0.20198 -0.309264,0.391984 -3.93701e-006,0.22185 0.180811,0.402673 0.402886,0.402673z"/><path class="fil0" d="M1.66028 1.25793c-0.0341969,-0.010685 -0.0728819,-0.00213386 -0.0991732,0.0243622 -0.000216535,0.000212598 -0.000425197,0.000437008 -0.000425197,0.000437008l-0.198984 0.185949c0.0196575,0.00191732 0.0380354,0.00811417 0.0540669,0.0177323l0.244516 -0.22848z"/><path class="fil0" d="M1.92188 1.24275c-0.0179488,0 -0.0350512,0.00470866 -0.0502283,0.013689l0 0c-0.00705118,0.00405118 -0.0134646,0.00919291 -0.0194409,0.0151693 -0.000216535,0.000212598 -0.000437008,0.000437008 -0.000437008,0.000437008l-0.374031 0.349453c-0.00427559,0.0245787 -0.015815,0.0476496 -0.0331339,0.0662559 -0.0247835,0.0264961 -0.0592047,0.0414606 -0.095315,0.0414606 -0.0019252,0 -0.00384646,0 -0.00576378,-0.000212598l-0.421917 -0.0185945c-0.0115433,-0.000425197 -0.0203031,-0.0102638 -0.019878,-0.0215827 0.000433071,-0.0113268 0.0102598,-0.0203031 0.0215906,-0.019878l0.421906 0.0185906c0.0260827,0.00106693 0.0510866,-0.00918898 0.0688307,-0.0282087 0.0130315,-0.0138898 0.0209331,-0.0314213 0.0232953,-0.0500236l0 -0.0217913c-0.00512598,-0.0414646 -0.0388976,-0.0741614 -0.0807953,-0.0777992 -0.000216535,0 -0.000425197,0 -0.000425197,0l-0.599732 -0.0658307c-0.101307,-0.0111142 -0.200909,0.0239291 -0.272941,0.0959646l-0.0403858 0.0403976 0.359276 0.35928 0.551646 0.014752c0.0574882,0.0021378 0.113492,-0.019878 0.153894,-0.0602677l0.483248 -0.483248c0.0384724,-0.0384724 0.0384724,-0.100882 0,-0.139354 -0.0181732,-0.0184094 -0.0429685,-0.0286575 -0.0692598,-0.0286575z"/><polygon class="fil0" points="0.313335,1.71039 0.621323,2.01838 0.758114,1.95405 0.413787,1.60973 "/></g></g><rect class="fil1" width="2.33333" height="2.33333"/><text x="0" y="17.33333" fill="#000000" font-size="5px" font-weight="bold" font-family="'Helvetica Neue', Helvetica, Arial-Unicode, Arial, Sans-serif">Created by Vector Valley</text><text x="0" y="22.33333" fill="#000000" font-size="5px" font-weight="bold" font-family="'Helvetica Neue', Helvetica, Arial-Unicode, Arial, Sans-serif">from the Noun Project</text></svg>